<svg width="128" height="30" viewBox="0 0 128 30" fill="none" xmlns="http://www.w3.org/2000/svg">
<rect width="128" height="30" fill="black"/>
<rect width="128" height="30" fill="white"/>
<path fill-rule="evenodd" clip-rule="evenodd" d="M23.0087 23.1968C20.1897 26.0577 16.0754 26.3029 13.4087 26.3029H3.19922V3.98717H13.6373C16.7611 3.98717 20.2659 4.15073 23.0849 7.09341C25.4468 9.54574 25.904 12.7337 25.904 15.1042C25.8278 19.3548 24.304 21.9706 23.0087 23.1968ZM12.4182 9.21823C14.0943 9.21823 15.8467 9.30001 17.142 10.4444C18.2086 11.4253 18.8182 13.1418 18.742 15.1037C18.742 17.1472 18.0563 18.8639 16.9896 19.763C15.6182 20.9074 13.4848 20.9892 12.342 20.9892H9.75149V9.21823H12.4182Z" fill="black"/>
<path fill-rule="evenodd" clip-rule="evenodd" d="M49.2183 23.3602C46.3992 26.3847 42.2849 26.8752 39.5421 26.8752C36.7992 26.8752 32.6849 26.3847 29.8659 23.3602C28.4945 21.8888 26.9706 19.2731 26.9706 15.1042C26.9706 10.9354 28.5707 8.31958 29.8659 6.84818C32.6849 3.82372 36.7992 3.33325 39.5421 3.33325C42.2849 3.33325 46.323 3.82372 49.2183 6.84818C50.5897 8.31958 52.1135 10.9354 52.1135 15.1042C52.1135 19.3548 50.5135 21.9706 49.2183 23.3602ZM35.6558 10.0362C36.8748 8.81004 38.3986 8.56481 39.5415 8.56481C40.6844 8.56481 42.2082 8.81004 43.4272 10.0362C44.2653 10.9354 45.1034 12.5702 45.1034 15.1042C45.1034 17.6382 44.2653 19.2731 43.4272 20.1723C42.2082 21.3984 40.6844 21.6436 39.5415 21.6436C38.3224 21.6436 36.8748 21.4801 35.6558 20.1723C34.8177 19.2731 33.9796 17.6382 33.9796 15.1042C33.9796 12.5702 34.8177 10.9354 35.6558 10.0362Z" fill="black"/>
<path fill-rule="evenodd" clip-rule="evenodd" d="M73.904 24.1776C72.304 26.0577 69.3326 26.2212 66.6659 26.2212H53.5611V3.98717H66.4373C68.5707 3.98717 70.3992 3.98717 71.8468 4.88632C72.9135 5.54034 74.0564 6.84818 74.0564 9.46396C74.0564 10.8536 73.6754 12.0797 72.9897 12.8971C71.923 14.1233 70.323 14.3685 70.1707 14.3685V14.532C71.4659 14.6137 72.8373 15.186 73.8278 16.0851C75.0469 17.2295 75.2754 18.7009 75.2754 20.0088C75.2754 21.5619 74.8183 23.1968 73.904 24.1776ZM66.6652 12.3252L66.6822 12.3116C66.9893 12.0648 67.5033 11.6518 67.5033 10.6086C67.5033 10.1182 67.4271 9.46426 66.7414 8.97379C66.4366 8.81024 65.9795 8.64678 64.8366 8.64678H60.189V12.8156H64.6081C64.7028 12.7953 64.8493 12.7749 65.023 12.7508C65.5481 12.6781 66.3217 12.5709 66.6652 12.3252ZM65.0652 16.9843C65.6747 16.9843 66.7414 17.0661 67.3509 17.393C68.0366 17.8018 68.2652 18.5374 68.2652 19.2731C68.2652 20.4174 67.7318 20.9079 67.4271 21.1531C66.8176 21.5619 65.9033 21.6436 65.2176 21.6436H60.189V16.9843H65.0652Z" fill="black"/>
<path fill-rule="evenodd" clip-rule="evenodd" d="M91.9611 26.3029L87.3135 18.9461H83.3516V26.3029H76.723V3.98717H90.2087C91.9611 3.98717 94.0945 4.06895 95.8469 5.45857C97.5992 6.92996 97.904 8.89172 97.904 10.3631C97.904 12.4884 97.2183 15.1042 95.0849 16.7391C94.9522 16.834 94.7423 16.9565 94.4852 17.1066C94.2996 17.2149 94.0895 17.3377 93.8659 17.4748L99.4278 26.3029H91.9611ZM90.4369 9.21922C89.7512 8.81054 88.9893 8.81054 88.1512 8.81054H83.3512V14.369H88.2274C89.0654 14.369 90.0559 14.2055 90.5131 13.7969C91.275 13.2246 91.3512 12.3255 91.3512 11.1811C91.4274 10.4454 91.1988 9.70969 90.4369 9.21922Z" fill="black"/>
<path fill-rule="evenodd" clip-rule="evenodd" d="M121.294 23.3602C118.475 26.3847 114.361 26.8752 111.618 26.8752C108.875 26.8752 104.761 26.3847 101.942 23.3602C100.571 21.8888 99.0469 19.2731 99.0469 15.1042C99.0469 10.9354 100.647 8.31958 101.942 6.84818C104.761 3.82372 108.875 3.33325 111.694 3.33325C114.437 3.33325 118.475 3.82372 121.371 6.84818C122.742 8.31958 124.266 10.9354 124.266 15.1042C124.19 19.3548 122.59 21.9706 121.294 23.3602ZM107.734 10.0362C108.953 8.81004 110.476 8.56481 111.619 8.56481C112.762 8.56481 114.286 8.81004 115.505 10.0362C116.343 10.9354 117.181 12.5702 117.181 15.1042C117.181 17.6382 116.343 19.2731 115.505 20.1723C114.286 21.3984 112.762 21.6436 111.619 21.6436C110.4 21.6436 108.953 21.4801 107.734 20.1723C106.895 19.2731 106.057 17.6382 106.057 15.1042C106.057 12.5702 106.895 10.9354 107.734 10.0362Z" fill="black"/>
</svg>
